PathFileType	4	(X/Y/Z)	Trial11_HipL_markers_cropped.trc
DataRate	CameraRate	NumFrames	NumMarkers	Units	OrigDataRate	OrigDataStartFrame	OrigNumFrames
200	200	7	27	m	200	0	101
Frame#	Time	R_ASIS			L_ASIS			Sacral			L_Thigh_Superior			L_Thigh_Posterior			L_Thigh_Inferior			L_Thigh_Lateral			L_Shank_Posterior			L_Shank_Superior			L_Shank_Lateral			L_Shank_Inferior			L_Midfoot_Superior			L_Heel			L_Midfoot_Lateral			L_Toe			R_Thigh_Posterior			R_Thigh_Superior			R_Thigh_Lateral			R_Thigh_Inferior			R_Shank_Posterior			R_Shank_Superior			R_Shank_Lateral			R_Shank_Inferior			R_Midfoot_Superior			R_Heel			R_Midfoot_Lateral			R_Toe
		X1	Y1	Z1	X2	Y2	Z2	X3	Y3	Z3	X4	Y4	Z4	X5	Y5	Z5	X6	Y6	Z6	X7	Y7	Z7	X8	Y8	Z8	X9	Y9	Z9	X10	Y10	Z10	X11	Y11	Z11	X12	Y12	Z12	X13	Y13	Z13	X14	Y14	Z14	X15	Y15	Z15	X16	Y16	Z16	X17	Y17	Z17	X18	Y18	Z18	X19	Y19	Z19	X20	Y20	Z20	X21	Y21	Z21	X22	Y22	Z22	X23	Y23	Z23	X24	Y24	Z24	X25	Y25	Z25	X26	Y26	Z26	X27	Y27	Z27

1	   0.000	    1.06257940042554	    0.96246963962638	    0.67668114960269	    1.05374259708059	    1.00049441843507	    0.42671061004191	    0.86840750982346	    1.05135772288086	    0.57555101541813	    1.06203783541638	    0.77842714015306	    0.34382778527705	    0.98904242605332	    0.76106372645049	    0.33855815411468	    1.07920223255773	    0.68547807584134	    0.35389548566030	    1.00102314945096	    0.67238634792485	    0.34686413104670	    0.99545374621662	    0.41467003957275	    0.32932687278039	    1.06437169587876	    0.38967971135772	    0.34906054921997	    0.98747714260564	    0.34447467995618	    0.31943320292883	    1.04988191746876	    0.33415706289257	    0.33886108999646	    1.07365855567710	    0.11979278191229	    0.39809657656765	    0.90432443219457	    0.05819490227097	    0.39171689192688	    1.01354183500764	    0.05482408417683	    0.33880027103923	    1.19951453266728	    0.07963946718696	    0.40996630645578	    0.97233139033473	    0.75176724908313	    0.71436138441680	    1.04739738195657	    0.75332749071509	    0.70615493883880	    0.97809070368573	    0.65318521055305	    0.70059916008495	    1.04906176720814	    0.65798566936398	    0.69630977384861	    0.94145181743147	    0.33601837337171	    0.65658254279343	    1.01681608938950	    0.32690872556827	    0.64316065463227	    0.93894829446800	    0.26770505982797	    0.63549242107996	    1.01056076947372	    0.27003134637012	    0.62453894628670	    1.04394244748792	    0.08847668075395	    0.53317728371342	    0.87552287798398	    0.04430312018163	    0.49522532550979	    0.96859520942193	    0.01262962196229	    0.57219081683664	    1.16763219237103	    0.04525965114081	    0.54388419406750
2	   0.005	    1.06385008789735	    0.96268158174508	    0.67694437244526	    1.05237889107331	    1.00128741431840	    0.42696710006632	    0.86760773311701	    1.04987534823947	    0.57756622393175	    1.06279374756921	    0.78023972333100	    0.34297586341825	    0.99004245930811	    0.76211835133719	    0.33750894760538	    1.08127152321685	    0.68742776110129	    0.35200165358445	    1.00322739561278	    0.67334969721992	    0.34514222557081	    1.00188709777433	    0.41580279729372	    0.32512767200271	    1.07139172202109	    0.39196517240587	    0.34416376501102	    0.99518738233832	    0.34557077055640	    0.31469471515317	    1.05791027893445	    0.33629292813349	    0.33358519105200	    1.08642322127499	    0.12125426298261	    0.39089494722979	    0.91767846199452	    0.05764996948094	    0.38548634354781	    1.02665551422789	    0.05601553449445	    0.33159697958691	    1.21281750580700	    0.08241185042585	    0.40166336629293	    0.97499300444106	    0.75132900425545	    0.71506298641935	    1.04996667048780	    0.75315585168822	    0.70592890235250	    0.98084750676230	    0.65280776071199	    0.70095008945170	    1.05174776327765	    0.65784001281259	    0.69577193139107	    0.94327290619887	    0.33570385125524	    0.65624048429782	    1.01853910356091	    0.32642739983063	    0.64254333293228	    0.94046727530748	    0.26746016670867	    0.63483546435687	    1.01202741964414	    0.26963855541358	    0.62371150584816	    1.04427893785837	    0.08841057190765	    0.53304304047354	    0.87528703198410	    0.04462542563153	    0.49519797142874	    0.96863859855893	    0.01275703334259	    0.57218622398509	    1.16789402765672	    0.04432973069008	    0.54400057360752
3	   0.010	    1.06498832573778	    0.96252290966476	    0.67735838543156	    1.05182616564135	    1.00242599701050	    0.42782845778114	    0.86837545282327	    1.04848719131804	    0.57960441775373	    1.06279833918932	    0.78295593368454	    0.34095462098029	    0.99014102481422	    0.76475718932573	    0.33535783693202	    1.08195283895620	    0.69011662017737	    0.34811127848391	    1.00393692002219	    0.67568877991888	    0.34164336698600	    1.00371251407517	    0.41862043194454	    0.31719283528060	    1.07384975803466	    0.39535203166764	    0.33449448502235	    0.99769773088526	    0.34847437350585	    0.30574034729894	    1.06086806812351	    0.33968008100469	    0.32324389058574	    1.09334059283601	    0.12366876182448	    0.37655390483437	    0.92508183579638	    0.05866057107441	    0.37280533167103	    1.03321557802966	    0.05878249545611	    0.31721846810046	    1.22021384281201	    0.08578896050754	    0.38480826465883	    0.97711761920196	    0.75097037401802	    0.71534190196064	    1.05203868184996	    0.75294874847360	    0.70576698095561	    0.98305398821442	    0.65250366176665	    0.70090761215412	    1.05390126290348	    0.65764118967604	    0.69533413099577	    0.94472521030365	    0.33537406111624	    0.65585329361508	    1.01989970560602	    0.32597007090210	    0.64194407428998	    0.94166619039178	    0.26721744801255	    0.63425043267933	    1.01321916757141	    0.26928009805331	    0.62296871243550	    1.04443469753269	    0.08833182591431	    0.53287102240335	    0.87529343670286	    0.04470112605638	    0.49520304289488	    0.96868220560590	    0.01284551142665	    0.57228568906075	    1.16801267982380	    0.04389505214318	    0.54407717475983
4	   0.015	    1.06641408526818	    0.96260738446481	    0.67788032213058	    1.05121569205182	    1.00435733193713	    0.42872709611534	    0.86915632194108	    1.04849737221233	    0.58224982130761	    1.06190115745462	    0.78734986687903	    0.33842599994499	    0.98932520471408	    0.76891262641344	    0.33267886844978	    1.08156901468848	    0.69443742619234	    0.34303343595338	    1.00360297629823	    0.67981870122062	    0.33649673051844	    1.00258390662369	    0.42358306004126	    0.30503100709307	    1.07313657457369	    0.39991771193395	    0.32060721328840	    0.99646576996299	    0.35365576928927	    0.29207547557850	    1.05996074194273	    0.34448477609870	    0.30820207922386	    1.09334819654669	    0.12718534905039	    0.35576588569015	    0.92495649317116	    0.06243036148985	    0.35293239595408	    1.03232032039011	    0.06362518291760	    0.29590135479589	    1.22024060862315	    0.08898811142408	    0.36152071027459	    0.97906832732745	    0.75077076800396	    0.71558524198106	    1.05389220931568	    0.75280627516168	    0.70559588741208	    0.98504091670540	    0.65235986489076	    0.70102079639781	    1.05583765479884	    0.65756298508746	    0.69501848880280	    0.94588345730124	    0.33522753976632	    0.65558303805552	    1.02100215468570	    0.32563856060925	    0.64156594568386	    0.94255017621473	    0.26715878753046	    0.63394377067779	    1.01407693984766	    0.26900133400430	    0.62250469810984	    1.04447693615627	    0.08832724171798	    0.53279684583616	    0.87529783333602	    0.04458805467758	    0.49461487018588	    0.96871365391200	    0.01293197918910	    0.57225514464696	    1.16800557986881	    0.04388170275070	    0.54410132400523
5	   0.020	    1.06807231624778	    0.96266465759038	    0.67871275404429	    1.05030703784917	    1.00646582435390	    0.42982135127631	    0.87037444162755	    1.04921319834956	    0.58602382704578	    1.05927071418507	    0.79336723156490	    0.33434364973964	    0.98671005019957	    0.77468948424992	    0.32871714699122	    1.07938940928590	    0.70044477836519	    0.33518561332749	    1.00141704638559	    0.68575853920308	    0.32861749523686	    0.99796718178561	    0.43069000309504	    0.28738390543800	    1.06894063737382	    0.40642895104669	    0.30003732813228	    0.99135015138452	    0.36116621104482	    0.27234187684705	    1.05523886756595	    0.35141599767172	    0.28616391723948	    1.08977068712612	    0.13220573681725	    0.32571146990028	    0.92098904120230	    0.06845569519541	    0.32458983333057	    1.02714906197577	    0.07056574887832	    0.26549265701956	    1.21649220712323	    0.09313696314863	    0.32801923985183	    0.98015950393560	    0.75070084049529	    0.71643959460126	    1.05502251512257	    0.75257288424518	    0.70652179904075	    0.98591103884615	    0.65228321153065	    0.70179955523354	    1.05671668442371	    0.65731048501013	    0.69587959502413	    0.94611673346521	    0.33501227213252	    0.65612377767522	    1.02120743308365	    0.32534345991420	    0.64200217060745	    0.94265898130682	    0.26699393518441	    0.63421298542346	    1.01421396659720	    0.26876879203611	    0.62275347782817	    1.04443282859354	    0.08834021784988	    0.53287034464326	    0.87538097761629	    0.04446817697206	    0.49454796955170	    0.96876438773294	    0.01292228996045	    0.57227181106422	    1.16795814817308	    0.04391980521992	    0.54412435891849
6	   0.025	    1.07031325978004	    0.96241007119357	    0.68033726636946	    1.04945408550047	    1.00820933677651	    0.43172736700384	    0.87182215818563	    1.04967893419199	    0.59103569791248	    1.05470317505771	    0.80129687919225	    0.32904192322918	    0.98198508776194	    0.78307301240014	    0.32374124812584	    1.07467485472008	    0.70843713353292	    0.32458226063846	    0.99653665889149	    0.69425492094568	    0.31842171985932	    0.99008734601708	    0.44090383856584	    0.26384682018432	    1.06151832113136	    0.41667049812578	    0.27234883432000	    0.98314930864844	    0.37223717660966	    0.24562675174586	    1.04753806862308	    0.36227781629714	    0.25626617974041	    1.08511338587158	    0.14116668476934	    0.28368182313030	    0.91653603239248	    0.07692826250008	    0.28554636056364	    1.02056562703721	    0.08221755272895	    0.22294113699609	    1.21190509246436	    0.10257886248083	    0.27971027629239	    0.98141594817491	    0.75044385900883	    0.71809944920607	    1.05630592889339	    0.75191142385250	    0.70813962482557	    0.98663667610014	    0.65199187833672	    0.70319066289132	    1.05748422980607	    0.65663846223646	    0.69733643756699	    0.94635215286531	    0.33461834803817	    0.65710314211471	    1.02137699367566	    0.32499056663177	    0.64268858068369	    0.94283039748703	    0.26668279561541	    0.63495583832454	    1.01432220241293	    0.26847745155354	    0.62327743874701	    1.04431994835435	    0.08837845829252	    0.53296079092286	    0.87532512514476	    0.04440929693353	    0.49458067149779	    0.96870341281267	    0.01290779508437	    0.57227053842100	    1.16785922098537	    0.04403012587404	    0.54408564396145
7	   0.030	    1.07327606607727	    0.96213197327811	    0.68217567923391	    1.04792406012598	    1.01028861132370	    0.43399268934576	    0.87354910103705	    1.05008799037966	    0.59727409922378	    1.04903139665582	    0.81245738839334	    0.32320814754541	    0.97630277458087	    0.79477322791378	    0.31766260705442	    1.06903159000276	    0.72018222455446	    0.31186346599559	    0.99076395072147	    0.70633945026436	    0.30599054798783	    0.98055861413416	    0.45601553509270	    0.23513567616446	    1.05242679734430	    0.43219818913508	    0.23835963317363	    0.97305533332728	    0.38878556473948	    0.21269899456216	    1.03806718942201	    0.37876268956491	    0.21945147161924	    1.07891921397415	    0.15596854917543	    0.23066720507348	    0.91064427463014	    0.09117302730238	    0.23623360648792	    1.01171995872039	    0.10066309044773	    0.16954044524601	    1.20546596409966	    0.11820626127348	    0.21856541447561	    0.98461842305423	    0.74984511779109	    0.72025565634057	    1.05931994747787	    0.75132532979296	    0.70915092344917	    0.98954647477002	    0.65140398092709	    0.70509197789647	    1.06030136462990	    0.65606348261229	    0.69807796095161	    0.94832752323620	    0.33403101879391	    0.65833647666255	    1.02317781866351	    0.32446821520592	    0.64297935817510	    0.94457042302665	    0.26618304770013	    0.63600312329272	    1.01579893787031	    0.26802213922453	    0.62347351515733	    1.04435039737961	    0.08840916892629	    0.53284366954341	    0.87531498430471	    0.04439732408733	    0.49463322287362	    0.96870055501518	    0.01294850944822	    0.57237763235948	    1.16796130703629	    0.04382437328997	    0.54390627067238
